Jordan Cooper aka ReignWolf Live At Jet City Studios, 2012.

FLAC Audio:

Audio
Format                           : FLAC
Format/Info                      : Free Lossless Audio Codec
Bit rate mode                    : Variable
Channel(s)                       : 2 channels
Sampling rate                    : 44.1 KHz
Bit depth                        : 16 bits
Stream size                      : 90,3 MB
Writing library                  : libFLAC 1.2.1 (UTC 2007-09-17)

-----------------------------------------------------------------------

HD Video:

ID                               : 1
Format                           : AVC
Format/Info                      : Advanced Video Codec
Format profile                   : High@L4.0
Format settings, CABAC           : Yes
Format settings, ReFrames        : 1 frame
Format settings, GOP             : M=1, N=48
Codec ID                         : avc1
Codec ID/Info                    : Advanced Video Coding
Bit rate mode                    : Variable
Bit rate                         : 4 951 Kbps
Maximum bit rate                 : 10.8 Mbps
Width                            : 1 920 pixels
Height                           : 1 080 pixels
Display aspect ratio             : 16:9
Frame rate mode                  : Constant
Frame rate                       : 23.976 fps
Color space                      : YUV
Chroma subsampling               : 4:2:0
Bit depth                        : 8 bits
Scan type                        : Progressive
Bits/(Pixel*Frame)               : 0.100
Stream size                      : 141 MiB (97%)

Audio
ID                               : 2
Format                           : AAC
Format/Info                      : Advanced Audio Codec
Format profile                   : LC
Codec ID                         : 40
Bit rate mode                    : Variable
Bit rate                         : 149 Kbps
Maximum bit rate                 : 190 Kbps
Channel(s)                       : 2 channels
Channel positions                : Front: L R
Sampling rate                    : 44.1 KHz
Compression mode                 : Lossy
Stream size                      : 4.24 MiB (3%)
Title                            : IsoMedia File, 5-11-2011

---------------------------------------------------------------------------

Setlist:
1- Palms To The Sky
2- Old Man
3- In The Dark
4- Electric Love